<svg width="18" height="18" viewBox="0 0 18 18" fill="none" xmlns="http://www.w3.org/2000/svg">
<circle cx="9" cy="9" r="9" fill="url(#paint0_linear_843_1953)"/>
<path d="M13.2938 5.6085C13.2343 5.54248 13.1635 5.49008 13.0854 5.45432C13.0074 5.41856 12.9237 5.40015 12.8392 5.40015C12.7546 5.40015 12.6709 5.41856 12.5929 5.45432C12.5148 5.49008 12.444 5.54248 12.3845 5.6085L7.61354 10.8633L5.60911 8.65147C5.5473 8.5858 5.47433 8.53416 5.39438 8.4995C5.31442 8.46484 5.22904 8.44784 5.14311 8.44948C5.05718 8.45111 4.97239 8.47135 4.89357 8.50903C4.81475 8.54671 4.74345 8.60109 4.68374 8.66908C4.62403 8.73707 4.57708 8.81733 4.54557 8.90528C4.51406 8.99322 4.49861 9.08714 4.5001 9.18165C4.50158 9.27617 4.51998 9.36944 4.55424 9.45613C4.5885 9.54283 4.63794 9.62125 4.69975 9.68693L7.15886 12.3918C7.2184 12.4578 7.28923 12.5102 7.36726 12.546C7.4453 12.5817 7.52901 12.6001 7.61354 12.6001C7.69808 12.6001 7.78179 12.5817 7.85983 12.546C7.93786 12.5102 8.00869 12.4578 8.06822 12.3918L13.2938 6.64396C13.3588 6.578 13.4107 6.49794 13.4462 6.40884C13.4817 6.31973 13.5 6.22351 13.5 6.12623C13.5 6.02895 13.4817 5.93273 13.4462 5.84363C13.4107 5.75452 13.3588 5.67446 13.2938 5.6085Z" fill="white"/>
<defs>
<linearGradient id="paint0_linear_843_1953" x1="-2" y1="6.62274e-09" x2="16" y2="16" gradientUnits="userSpaceOnUse">
<stop stop-color="#323F9B"/>
<stop offset="1" stop-color="#0976DE"/>
</linearGradient>
</defs>
</svg>
