<svg width="18" height="18" viewBox="0 0 18 18" fill="none" xmlns="http://www.w3.org/2000/svg">
<circle cx="9" cy="9" r="9" fill="white"/>
<path d="M13.2938 6.20836C13.2343 6.14234 13.1635 6.08993 13.0854 6.05417C13.0074 6.01841 12.9237 6 12.8392 6C12.7546 6 12.6709 6.01841 12.5929 6.05417C12.5148 6.08993 12.444 6.14234 12.3845 6.20836L7.61354 11.4631L5.60911 9.25133C5.5473 9.18565 5.47433 9.13401 5.39438 9.09935C5.31442 9.06469 5.22904 9.04769 5.14311 9.04933C5.05718 9.05096 4.97239 9.0712 4.89357 9.10888C4.81475 9.14656 4.74345 9.20095 4.68374 9.26894C4.62403 9.33693 4.57708 9.41718 4.54557 9.50513C4.51406 9.59308 4.49861 9.68699 4.5001 9.78151C4.50158 9.87602 4.51998 9.96929 4.55424 10.056C4.5885 10.1427 4.63794 10.2211 4.69975 10.2868L7.15886 12.9916C7.2184 13.0577 7.28923 13.1101 7.36726 13.1458C7.4453 13.1816 7.52901 13.2 7.61354 13.2C7.69808 13.2 7.78179 13.1816 7.85983 13.1458C7.93786 13.1101 8.00869 13.0577 8.06822 12.9916L13.2938 7.24381C13.3588 7.17785 13.4107 7.0978 13.4462 7.00869C13.4817 6.91959 13.5 6.82336 13.5 6.72609C13.5 6.62881 13.4817 6.53258 13.4462 6.44348C13.4107 6.35437 13.3588 6.27432 13.2938 6.20836Z" fill="#0F6FD6" stroke="#0F6FD6" stroke-width="0.5"/>
</svg>
