<svg width="38" height="52" viewBox="0 0 38 52" fill="none" xmlns="http://www.w3.org/2000/svg">
<rect x="1" y="1" width="36" height="50" rx="5" stroke="#2C71F6" stroke-width="2"/>
<path d="M1.58301 40.7852H37.4719" stroke="#2C71F6" stroke-width="2"/>
<ellipse cx="18.9999" cy="45.8829" rx="1.05556" ry="1.01961" fill="#28B0DF"/>
<path d="M13.1701 11.2148C12.8991 11.2148 12.667 11.4467 12.667 11.7174V18.1717C12.667 18.8287 13.2087 19.3698 13.8664 19.3698H15.1434V32.1239C15.1434 32.3946 15.3755 32.6265 15.6465 32.6265C15.9175 32.6265 16.1496 32.3946 16.1496 32.1239V19.3698H17.4265C18.0843 19.3698 18.626 18.8287 18.626 18.1717L18.6257 11.7174C18.6257 11.4467 18.3936 11.2148 18.1226 11.2148C17.8516 11.2148 17.6195 11.4467 17.6195 11.7174V18.1717C17.6195 18.2491 17.542 18.3262 17.4259 18.3262H16.149L16.1493 11.7174C16.1493 11.4467 15.9172 11.2149 15.6462 11.2149C15.3752 11.2149 15.1431 11.4467 15.1431 11.7174V18.3265H13.8662C13.7501 18.3265 13.6726 18.2491 13.6726 18.172L13.6729 11.7174C13.7118 11.4468 13.4794 11.2148 13.1701 11.2148ZM24.8694 11.2148C24.792 11.2148 24.6759 11.2534 24.5984 11.2922C24.4438 11.3696 20.7676 13.8043 20.7676 21.882C20.7676 22.1527 20.9997 22.3846 21.2707 22.3846H24.3274V32.1241C24.3274 32.3948 24.5596 32.6266 24.8305 32.6266C25.1015 32.6266 25.3337 32.3948 25.3337 32.1241V11.7174C25.3337 11.5241 25.2176 11.3697 25.0627 11.2537C25.0243 11.2149 24.9469 11.2148 24.8694 11.2148ZM24.3663 12.9155V21.3796H21.8124C21.8899 17.7465 22.7411 15.4663 23.4761 14.1909C23.8246 13.6498 24.0956 13.2247 24.3663 12.9155Z" fill="#28B0DF" stroke="#28B0DF" stroke-width="0.5"/>
</svg>
