<svg width="38" height="52" viewBox="0 0 38 52" fill="none" xmlns="http://www.w3.org/2000/svg">
<rect x="1" y="1" width="36" height="50" rx="5" stroke="#2C71F6" stroke-width="2"/>
<path d="M1.58301 40.7852H37.4719" stroke="#2C71F6" stroke-width="2"/>
<ellipse cx="18.9999" cy="45.8829" rx="1.05556" ry="1.01961" fill="#28B0DF"/>
<path d="M18.3372 30.4963V28.7362C17.5639 28.6696 16.7972 28.5096 16.0372 28.2562C15.2905 28.0029 14.6039 27.6562 13.9772 27.2162L14.9972 25.5162C15.5305 25.8896 16.0772 26.1896 16.6372 26.4162C17.1972 26.6296 17.7639 26.7762 18.3372 26.8562V22.9562L17.1172 22.6562C16.1172 22.3762 15.3705 21.9629 14.8772 21.4162C14.3972 20.8562 14.1572 20.1496 14.1572 19.2962C14.1572 18.1896 14.5305 17.3096 15.2772 16.6562C16.0239 15.9896 17.0439 15.6229 18.3372 15.5562V13.8162H19.5772V15.5762C20.2839 15.6562 20.9705 15.8296 21.6372 16.0962C22.3039 16.3496 22.9239 16.6829 23.4972 17.0962L22.5172 18.7562C21.5839 18.0762 20.6039 17.6496 19.5772 17.4762V21.1962L20.7772 21.5162C21.8305 21.8096 22.6039 22.2229 23.0972 22.7562C23.5905 23.2896 23.8372 23.9762 23.8372 24.8162C23.8372 25.5496 23.6639 26.2029 23.3172 26.7762C22.9705 27.3362 22.4772 27.7896 21.8372 28.1362C21.1972 28.4696 20.4439 28.6629 19.5772 28.7162V30.4963H18.3372ZM18.3372 20.9162V17.4162C17.6705 17.4429 17.1439 17.6162 16.7572 17.9362C16.3839 18.2429 16.1972 18.6429 16.1972 19.1362C16.1972 19.5496 16.3305 19.8896 16.5972 20.1562C16.8639 20.4096 17.3172 20.6229 17.9572 20.7962L18.3372 20.9162ZM19.5772 26.8562C20.2439 26.8029 20.7705 26.6162 21.1572 26.2962C21.5439 25.9762 21.7372 25.5629 21.7372 25.0562C21.7372 24.6296 21.6039 24.2962 21.3372 24.0562C21.0839 23.8162 20.6172 23.5829 19.9372 23.3562L19.5772 23.2362V26.8562Z" fill="#28B0DF"/>
</svg>
