<svg width="38" height="52" viewBox="0 0 38 52" fill="none" xmlns="http://www.w3.org/2000/svg">
<path d="M20.9901 32.6286H18.1039L17.1803 31.1044C16.2181 30.8813 15.2947 30.5096 14.4479 30.0264L12.7162 30.4726L10.6765 28.5024L11.1382 26.7925C10.6381 25.9748 10.253 25.0826 10.0223 24.1532L8.44434 23.261V20.4731L10.0223 19.5809C10.2532 18.6515 10.638 17.7595 11.1382 16.9416L10.6765 15.3431L12.7162 13.373L14.4864 13.819C15.3329 13.3358 16.2565 12.9639 17.2187 12.741L18.1424 11.2168H21.0285L21.9522 12.741C22.9143 12.9641 23.8378 13.3358 24.6846 13.819L26.4548 13.373L28.4944 15.3431L28.0327 17.053C28.5329 17.8707 28.9179 18.763 29.1487 19.6923L30.7266 20.5846V23.3724L29.1487 24.2647C28.9177 25.194 28.5329 26.086 28.0327 26.904L28.4944 28.6139L26.3394 30.4726L24.5692 30.0266C23.7227 30.5097 22.799 30.8817 21.8368 31.1046L20.9901 32.6286ZM18.7582 31.5134H20.2974L21.1055 30.1381L21.3365 30.1009C22.3371 29.8778 23.2992 29.5061 24.1457 28.9858L24.3767 28.8372L25.993 29.2461L27.109 28.1681L26.6857 26.6068L26.8396 26.3837C27.3785 25.5286 27.8017 24.6366 27.994 23.6701L28.0325 23.447L29.4563 22.6664V21.1796L28.0325 20.3991L27.994 20.1386C27.763 19.1721 27.3783 18.2428 26.8396 17.4251L26.6857 17.202L27.109 15.6406L25.993 14.5627L24.3767 14.9715L24.1457 14.8229C23.2605 14.3024 22.337 13.8936 21.3365 13.7078L21.1055 13.6706L20.2974 12.3322H18.7582L17.9501 13.7076L17.6807 13.7449C16.6801 13.968 15.718 14.3397 14.8714 14.86L14.6405 15.0087L13.0241 14.5998L11.9081 15.6778L12.3314 17.2391L12.1775 17.4622C11.6387 18.3173 11.2154 19.2093 11.0231 20.1758L10.9846 20.3989L9.59905 21.1794V22.6662L11.0229 23.4468L11.0614 23.6699C11.2923 24.6364 11.6771 25.5658 12.2158 26.3835L12.3696 26.6066L11.9464 28.1679L13.0623 29.2459L14.6787 28.837L14.9097 28.9856C15.7949 29.5061 16.7184 29.915 17.7189 30.1007L17.9499 30.1379L18.7582 31.5134Z" fill="#28B0DF"/>
<path d="M19.5282 26.9409C16.6805 26.9409 14.333 24.6734 14.333 21.9226C14.333 19.1719 16.6805 16.9043 19.5282 16.9043C22.376 16.9043 24.7235 19.1719 24.7235 21.9226C24.7235 24.6734 22.376 26.9409 19.5282 26.9409ZM19.5282 18.0193C17.2963 18.0193 15.4874 19.7664 15.4874 21.9225C15.4874 24.0784 17.2963 25.8257 19.5282 25.8257C21.7602 25.8257 23.5691 24.0784 23.5691 21.9225C23.5691 19.7666 21.7602 18.0193 19.5282 18.0193Z" fill="#28B0DF"/>
<rect x="1" y="1" width="36" height="50" rx="5" stroke="#2C71F6" stroke-width="2"/>
<path d="M1.58301 40.7852H37.4719" stroke="#2C71F6" stroke-width="2"/>
<ellipse cx="18.9999" cy="45.8829" rx="1.05556" ry="1.01961" fill="#28B0DF"/>
</svg>
