<svg width="53" height="52" viewBox="0 0 53 52" fill="none" xmlns="http://www.w3.org/2000/svg">
<g clip-path="url(#clip0_1139_186)">
<path d="M48.7724 0H3.22759C2.33103 0 1.52414 0.358621 0.896552 0.986207C0.358621 1.52414 0 2.42069 0 3.22759V48.7724C0 49.669 0.358621 50.4759 0.986207 51.1034C1.52414 51.6414 2.42069 52 3.22759 52H48.7724C49.669 52 50.4759 51.6414 51.1034 51.0138C51.731 50.3862 52.0896 49.5793 52.0896 48.6828V3.22759C52.0896 2.33103 51.731 1.52414 51.1034 0.896552C50.4759 0.358621 49.5793 0 48.7724 0ZM49.8483 48.7724C49.8483 49.0414 49.7586 49.3103 49.4897 49.5793C49.2207 49.8483 49.0414 49.9379 48.6828 49.9379H3.22759C2.6 49.9379 2.15172 49.4897 2.15172 48.8621V10.8483H46.6207C47.2483 10.8483 47.6965 10.4 47.6965 9.77241C47.6965 9.14483 47.1586 8.69655 46.6207 8.69655H2.15172V3.31724C2.15172 2.68966 2.68965 2.15172 3.22759 2.15172H48.7724C49.0414 2.15172 49.3103 2.24138 49.5793 2.51034C49.8483 2.77931 49.9379 2.95862 49.9379 3.31724V48.7724H49.8483Z" fill="#1C208F" stroke="#1C208F" stroke-width="0.5"/>
<path d="M7.61997 4.30347H5.3786C4.84067 4.30347 4.30273 4.8414 4.30273 5.37933C4.30273 6.00691 4.75101 6.45519 5.3786 6.45519H7.53032C8.15791 6.45519 8.60618 6.00691 8.60618 5.37933C8.69584 4.8414 8.15791 4.30347 7.61997 4.30347Z" fill="#1C208F"/>
<path d="M14.0755 4.30347H11.9238C11.2962 4.30347 10.8479 4.75174 10.8479 5.37933C10.8479 6.00691 11.2962 6.45519 11.9238 6.45519H14.0755C14.7031 6.45519 15.1513 6.00691 15.1513 5.37933C15.1513 4.8414 14.7031 4.30347 14.0755 4.30347Z" fill="#1C208F"/>
<path d="M20.6202 4.30347H18.4684C17.8409 4.30347 17.3926 4.75174 17.3926 5.37933C17.3926 6.00691 17.8409 6.45519 18.4684 6.45519H20.6202C21.2477 6.45519 21.696 6.00691 21.696 5.37933C21.696 4.8414 21.1581 4.30347 20.6202 4.30347Z" fill="#1C208F"/>
<path d="M16.228 36.8483H35.6831C35.9521 36.8483 36.2211 36.7587 36.49 36.4897C36.759 36.2207 36.8486 36.0414 36.8486 35.6828V32.4552C36.8486 32.1863 36.759 31.9173 36.49 31.6483L32.4555 27.6138V18.3794C32.4555 18.2001 32.3659 18.1104 32.3659 17.9311C32.2762 17.6621 29.8555 12.9104 26.0004 12.9104C22.1452 12.9104 19.7245 17.6621 19.6349 17.8414C19.5452 18.0207 19.5452 18.2001 19.5452 18.2897V27.6138L15.5107 31.6483C15.3314 31.8276 15.2418 32.0966 15.1521 32.3656V35.5932C15.1521 35.8621 15.2418 36.1311 15.5107 36.4001C15.7797 36.669 15.959 36.8483 16.228 36.8483ZM32.5452 30.7518L34.6969 32.9035V34.607H32.5452V30.7518ZM26.0004 15.1518C27.4349 15.3311 28.69 16.138 29.4073 17.3035H22.5935C23.3107 16.138 24.5659 15.3311 26.0004 15.1518ZM21.6969 19.5449H30.3935V34.6966H21.6969V19.5449ZM17.3038 32.9035L19.4555 30.7518V34.607H17.3038V32.9035Z" fill="#28B0DF"/>
<path d="M23.8476 39C23.22 39 22.7717 39.4483 22.7717 40.0759V41.7793C22.0545 41.331 21.1579 41.1517 20.2613 41.1517C19.3648 41.2414 18.5579 41.6 17.8407 42.1379C16.9441 40.1655 15.2407 38.6414 13.0889 38.1034C10.9372 37.5655 8.69584 38.0138 6.99239 39.3586C5.28894 40.7034 4.30273 42.7655 4.30273 44.9172C4.30273 45.5448 4.75101 45.9931 5.3786 45.9931C6.00618 45.9931 6.45446 45.5448 6.45446 44.9172C6.45446 43.2138 7.35101 41.6 8.87515 40.7034C10.3993 39.8069 12.282 39.8069 13.7165 40.7034C15.2407 41.6 16.1372 43.2138 16.1372 44.9172C16.1372 45.0069 16.1372 45.0069 16.1372 45.0965V45.4552C16.1372 46.0828 16.5855 46.531 17.2131 46.531C17.8407 46.531 18.2889 46.0828 18.2889 45.4552C18.2889 44.6483 18.7372 43.931 19.3648 43.5724C19.9924 43.2138 20.8889 43.2138 21.5165 43.5724C22.1441 43.931 22.5924 44.6483 22.5924 45.4552C22.5924 46.0828 23.0407 46.531 23.6682 46.531C24.2958 46.531 24.7441 46.0828 24.7441 45.4552V40.0759C24.7441 39.8069 24.6545 39.5379 24.3855 39.269C24.3855 39.0897 24.1165 39 23.8476 39Z" fill="#28B0DF"/>
<path d="M45.634 39.9862C44.2892 38.6414 42.4961 37.9241 40.6133 37.9241C39.2685 37.9241 37.9237 38.2828 36.7581 39.0896C35.5926 39.8069 34.6961 40.8828 34.1581 42.2276C33.5306 41.6897 32.634 41.331 31.8271 41.2414C30.9306 41.1517 30.1237 41.331 29.3168 41.7793V40.0759C29.3168 39.4483 28.8685 39 28.2409 39C27.6133 39 27.165 39.4483 27.165 40.0759V45.4552C27.165 46.0828 27.6133 46.531 28.2409 46.531C28.8685 46.531 29.3168 46.0828 29.3168 45.4552C29.3168 44.6483 29.765 43.931 30.3926 43.5724C31.0202 43.2138 31.9168 43.2138 32.5443 43.5724C33.1719 43.931 33.6202 44.6483 33.6202 45.4552C33.6202 46.0828 34.0685 46.531 34.6961 46.531C35.3237 46.531 35.7719 46.0828 35.7719 45.4552V45.0965C35.7719 45.0069 35.7719 45.0069 35.7719 44.9172C35.7719 43.2138 36.6685 41.6 38.1926 40.7034C39.7168 39.8069 41.5995 39.8069 43.034 40.7034C44.5581 41.6 45.4547 43.2138 45.4547 44.9172C45.4547 45.5448 45.903 45.9931 46.5306 45.9931C47.1581 45.9931 47.6064 45.5448 47.6064 44.9172C47.6961 43.1241 46.8892 41.331 45.634 39.9862Z" fill="#28B0DF"/>
<path d="M25.9999 20.6207C25.1033 20.6207 24.2964 20.9793 23.6688 21.6069C23.0412 22.2345 22.6826 23.0414 22.6826 23.9379C22.6826 24.8345 23.0412 25.6414 23.6688 26.2689C24.2964 26.8965 25.1033 27.2551 25.9999 27.2551C26.8964 27.2551 27.7033 26.8965 28.3309 26.2689C28.9585 25.6414 29.3171 24.8345 29.3171 23.9379C29.3171 23.0414 28.9585 22.2345 28.3309 21.6069C27.7033 20.8896 26.8964 20.6207 25.9999 20.6207ZM26.8068 24.5655C26.6274 24.7448 26.3585 24.9241 25.9999 24.9241C25.5516 24.9241 25.193 24.6551 25.0137 24.2965C24.8343 23.8483 24.924 23.4 25.2826 23.131C25.5516 22.862 26.0895 22.7724 26.4481 22.862C26.8964 23.0414 27.0757 23.4 27.0757 23.8483C27.0757 24.1172 26.9861 24.3862 26.8068 24.5655Z" fill="#28B0DF"/>
</g>
<defs>
<clipPath id="clip0_1139_186">
<rect width="52.8965" height="52" fill="white"/>
</clipPath>
</defs>
</svg>
