<svg width="66" height="55" viewBox="0 0 66 55" fill="none" xmlns="http://www.w3.org/2000/svg">
<path d="M52.1861 5.87209H52.4273H52.4268C52.7965 5.87209 53.0959 5.57227 53.0959 5.20299C53.0959 4.83326 52.7965 4.53345 52.4268 4.53345H52.1857H52.1861C51.8164 4.53345 51.5166 4.83327 51.5166 5.20299C51.5166 5.57228 51.8164 5.87209 52.1861 5.87209Z" fill="#1C208F"/>
<path d="M54.7765 5.87209H55.0176H55.0171C55.3869 5.87209 55.6867 5.57227 55.6867 5.20299C55.6867 4.83326 55.3869 4.53345 55.0171 4.53345H54.776H54.7765C54.4067 4.53345 54.1069 4.83327 54.1069 5.20299C54.1069 5.57228 54.4068 5.87209 54.7765 5.87209Z" fill="#1C208F"/>
<path d="M57.3595 5.87209H57.6006C57.9699 5.87209 58.2697 5.57227 58.2697 5.20299C58.2697 4.83326 57.9699 4.53345 57.6006 4.53345H57.3595C56.9898 4.53345 56.6904 4.83327 56.6904 5.20299C56.6904 5.57228 56.9898 5.87209 57.3595 5.87209Z" fill="#1C208F"/>
<path d="M24.419 5.20208C24.419 5.0246 24.3487 4.85431 24.2232 4.72882C24.0977 4.60333 23.9274 4.53253 23.7499 4.53253H8.90636C8.53663 4.53253 8.23682 4.83235 8.23682 5.20208C8.23682 5.57136 8.53664 5.87117 8.90636 5.87117H23.7499C23.9274 5.87117 24.0977 5.80081 24.2232 5.67533C24.3487 5.54985 24.419 5.37955 24.419 5.20208Z" fill="#1C208F" stroke="#1C208F" stroke-width="0.6"/>
<path d="M65.5265 19.2747L62.009 9.84232V4.98991C62.009 3.93199 61.6451 2.91672 60.9965 2.16865C60.3485 1.42004 59.4689 1 58.5524 1H8.03621C7.12014 1.00208 6.24196 1.42317 5.59376 2.17074C4.94567 2.91882 4.58086 3.93251 4.57951 4.99001V9.76443C0.82648 19.857 1.00127 19.3367 1.00127 19.5852V21.0294C1.00172 22.2927 1.34806 23.5242 1.99075 24.5474C2.63298 25.5705 3.53918 26.3336 4.57951 26.7277V49.5983C4.57951 50.767 4.98215 51.8878 5.69869 52.7138C6.41524 53.5394 7.38676 54.0021 8.39964 54H58.1687C59.1802 54 60.1504 53.5363 60.8656 52.7107C61.5803 51.8857 61.9825 50.766 61.9825 49.5983V26.7276C63.0238 26.3346 63.9313 25.5725 64.5749 24.5489C65.2189 23.5258 65.5657 22.2938 65.567 21.0295C65.567 19.5385 65.6008 19.4765 65.5265 19.2747ZM63.8853 18.8089H56.3731L54.2207 10.7271H60.8593C62.305 14.5699 61.6186 12.7536 63.8853 18.8089ZM55.1962 21.0293C55.2399 22.238 54.8544 23.415 54.1288 24.2883C53.4033 25.1616 52.4008 25.6555 51.3522 25.6555C50.3042 25.6555 49.3012 25.1616 48.5757 24.2883C47.8501 23.4149 47.465 22.238 47.5087 21.0293V20.3613H55.1963L55.1962 21.0293ZM46.1639 21.0293C46.208 22.238 45.822 23.415 45.0965 24.2883C44.3709 25.1616 43.3679 25.6555 42.3199 25.6555C41.2718 25.6555 40.2689 25.1616 39.5433 24.2883C38.8177 23.4149 38.4322 22.238 38.4764 21.0293V20.3613H46.1634L46.1639 21.0293ZM37.1315 21.0293C37.1315 22.6154 36.3978 24.0815 35.2074 24.8748C34.0171 25.6681 32.5507 25.6681 31.3603 24.8748C30.17 24.0815 29.4367 22.6154 29.4367 21.0293V20.3613H37.1309L37.1315 21.0293ZM28.0925 21.0293H28.0916C28.1357 22.238 27.7502 23.415 27.0246 24.2883C26.2991 25.1617 25.2961 25.6555 24.248 25.6555C23.2 25.6555 22.197 25.1616 21.4715 24.2883C20.7459 23.415 20.3604 22.238 20.4045 21.0293V20.3613H28.0916L28.0925 21.0293ZM19.0601 21.0293H19.0592C19.1029 22.238 18.7178 23.415 17.9923 24.2883C17.2667 25.1617 16.2637 25.6555 15.2157 25.6555C14.1672 25.6555 13.1647 25.1616 12.4391 24.2883C11.7135 23.415 11.328 22.238 11.3717 21.0293V20.3613H19.0592L19.0601 21.0293ZM47.4081 18.8089L46.1101 10.7271H52.7888L54.9412 18.8089H47.4081ZM46.0629 18.8089H38.4294L37.9921 10.7271H44.718L46.0629 18.8089ZM37.1179 18.8089H29.4844L29.9213 10.7271H36.6473L37.1179 18.8089ZM28.1729 18.8089H20.539L21.8505 10.7271H28.5765L28.1729 18.8089ZM19.1604 18.8089H11.6076L13.7797 10.7271H20.5052L19.1604 18.8089ZM5.92434 4.98938C5.92614 4.3437 6.14908 3.72507 6.54496 3.26806C6.94039 2.8111 7.47679 2.55377 8.03621 2.55169H58.5524C59.1117 2.55377 59.6477 2.8111 60.0436 3.26806C60.4391 3.72502 60.6624 4.34365 60.6642 4.98938V9.15041L5.9236 9.15093L5.92434 4.98938ZM5.70906 10.7265H12.3606L10.1953 18.8084H2.68252C4.95605 12.7062 4.28987 14.5076 5.70906 10.7265ZM2.34654 21.0286V20.3606H10.0273V21.0286C9.94891 22.5498 9.20037 23.9186 8.04428 24.6547C6.8882 25.3903 5.48573 25.3903 4.32907 24.6547C3.17299 23.9185 2.42437 22.5498 2.34654 21.0286ZM60.6787 49.598L60.6782 49.5975C60.6787 50.3611 60.413 51.0931 59.9414 51.6291C59.4694 52.1646 58.8312 52.4594 58.1696 52.4469H8.40061C7.74575 52.4469 7.11793 52.1464 6.6549 51.6125C6.19236 51.0781 5.93204 50.3534 5.93204 49.5975V27.0143C6.89406 27.0673 7.85024 26.811 8.69329 26.2735C9.5364 25.7364 10.2335 24.939 10.7074 23.971C11.3123 25.2088 12.2788 26.1576 13.4339 26.6477C14.5892 27.1379 15.8578 27.1379 17.0131 26.6477C18.1684 26.1575 19.1348 25.2088 19.7396 23.971C20.3445 25.2088 21.311 26.1576 22.4662 26.6477C23.6215 27.1379 24.8905 27.1379 26.0458 26.6477C27.2011 26.1575 28.1675 25.2088 28.7723 23.971C29.3763 25.2114 30.3437 26.1622 31.5003 26.6534C32.6568 27.1452 33.9269 27.1452 35.0835 26.6534C36.24 26.1622 37.2075 25.2113 37.8114 23.971C38.4162 25.2088 39.3828 26.1576 40.5379 26.6477C41.6932 27.1379 42.9618 27.1379 44.1175 26.6477C45.2728 26.1575 46.2392 25.2088 46.8441 23.971C47.4489 25.2088 48.4155 26.1576 49.5706 26.6477C50.7259 27.1379 51.9945 27.1379 53.1498 26.6477C54.3051 26.1575 55.2715 25.2088 55.8763 23.971C56.3519 24.9421 57.0527 25.7411 57.8999 26.2787C58.7466 26.8162 59.7064 27.0709 60.672 27.0143L60.6787 49.598ZM64.2227 21.0286C64.2227 22.6147 63.4895 24.0808 62.2991 24.8741C61.1092 25.6674 59.6423 25.6674 58.4524 24.8741C57.2621 24.0808 56.5288 22.6147 56.5288 21.0286V20.3606H64.2226L64.2227 21.0286Z" fill="#1C208F" stroke="#1C208F" stroke-width="0.6"/>
<path d="M51.0869 32.7781H36.5106L36.062 30.8174C35.9083 30.1245 35.293 29.6315 34.583 29.6324H32.3341C31.9648 29.6324 31.665 29.9323 31.665 30.302C31.665 30.6713 31.9649 30.9711 32.3341 30.9711H34.5763C34.6619 30.9729 34.7345 31.0343 34.7502 31.1181C38.8862 49.2945 36.0888 36.9607 37.427 42.7561C37.5955 43.5175 38.1409 44.1404 38.8728 44.4094C38.7383 44.6917 38.6675 45 38.6653 45.3128C38.6626 45.9398 38.9396 46.5354 39.4213 46.9369C39.9031 47.3385 40.539 47.5039 41.1552 47.3878C41.7714 47.2717 42.3039 46.8867 42.6068 46.3378C42.9097 45.7888 42.9514 45.1331 42.721 44.5501H44.8696C44.6172 45.1968 44.7002 45.9263 45.0914 46.4995C45.4831 47.0727 46.1325 47.4156 46.8267 47.4156C47.5209 47.4156 48.1707 47.0727 48.5619 46.4995C48.9536 45.9263 49.037 45.1968 48.7842 44.5501H49.1728C49.5421 44.5501 49.8419 44.2502 49.8419 43.8805C49.8419 43.5112 49.542 43.2114 49.1728 43.2114H39.6423C39.1928 43.2128 38.8029 42.9009 38.7056 42.4617L38.612 42.0534H49.2794C49.5985 42.0614 49.8786 41.8427 49.949 41.5317L50.5042 39.0956V39.0086C50.8789 37.3756 51.5883 34.2371 51.7291 33.6213C51.7828 33.421 51.7412 33.2068 51.6152 33.0414C51.4893 32.8765 51.2948 32.779 51.0869 32.7781ZM46.8038 46.0762C46.4955 46.0762 46.2172 45.8902 46.0989 45.6048C45.981 45.3197 46.046 44.9917 46.2642 44.7734C46.4825 44.5552 46.8105 44.4902 47.096 44.6081C47.381 44.7264 47.567 45.0042 47.567 45.313C47.563 45.7329 47.2237 46.0726 46.8038 46.0762ZM40.7406 46.0758C40.4319 46.0758 40.1536 45.8902 40.0357 45.6048C39.9174 45.3197 39.9828 44.9917 40.2011 44.7734C40.4193 44.5552 40.7474 44.4902 41.0324 44.6081C41.3174 44.7264 41.5034 45.0042 41.5034 45.313C41.5034 45.7343 41.1619 46.0758 40.7406 46.0758ZM49.9826 35.2676H46.911L47.0114 34.1163H50.2439L49.9826 35.2676ZM49.3135 38.2258H46.6367C46.7774 36.633 46.7774 36.6196 46.7774 36.6062H49.655C49.655 36.6062 49.6814 36.5928 49.3135 38.2258ZM41.7441 38.2258C41.6033 36.5928 41.6033 36.6196 41.6033 36.6062H45.4517L45.3109 38.2258H41.7441ZM37.7286 38.2258L37.3606 36.6062H40.2584L40.3992 38.2258H37.7286ZM45.6524 34.1167L45.552 35.268L41.4899 35.2676L41.3896 34.1163L45.6524 34.1167ZM40.0307 34.1167L40.1311 35.268H37.0527L36.7919 34.1167H40.0307ZM38.2973 40.7154C38.1234 39.9527 38.1767 40.2135 38.0297 39.5641H40.5265C40.5265 39.6578 40.5265 39.176 40.6268 40.7154H38.2973ZM41.9448 40.7154C41.8247 39.1558 41.8646 39.6712 41.8646 39.5641H45.211C45.211 39.6578 45.211 39.176 45.1106 40.7154H41.9448ZM48.7308 40.7154H46.4358C46.5496 39.1558 46.5496 39.6712 46.5496 39.5641H49.0189L48.7308 40.7154Z" fill="#28B0DF"/>
<path d="M28.0529 29.6323H16.6755C16.1243 29.6341 15.5959 29.8541 15.206 30.244C14.8161 30.6339 14.596 31.1623 14.5942 31.7136V37.4827C14.596 38.0344 14.8161 38.5628 15.206 38.9526C15.5959 39.3425 16.1242 39.5621 16.6755 39.5639H28.0529C28.6037 39.5621 29.1316 39.342 29.5202 38.9521C29.9092 38.5618 30.1274 38.0334 30.1274 37.4826V31.7135C30.1274 31.1627 29.9092 30.6343 29.5202 30.2444C29.1316 29.854 28.6037 29.634 28.0529 29.6322V29.6323ZM28.7892 37.4827C28.7892 37.8905 28.4607 38.2217 28.0529 38.2257H16.6755C16.2655 38.2257 15.9329 37.8928 15.9329 37.4827V31.7136C15.9329 31.5168 16.0109 31.3277 16.1503 31.1883C16.2896 31.0494 16.4788 30.971 16.6755 30.971H28.0529C28.4607 30.9746 28.7892 31.3062 28.7892 31.7136L28.7892 37.4827Z" fill="#28B0DF"/>
<path d="M15.2438 42.242H17.9206C18.2903 42.242 18.5897 41.9422 18.5897 41.5725C18.5897 41.2032 18.2903 40.9034 17.9206 40.9034H15.2438C14.874 40.9034 14.5742 41.2032 14.5742 41.5725C14.5742 41.9422 14.874 42.242 15.2438 42.242Z" fill="#28B0DF"/>
<path d="M29.4576 43.4731H15.2428C14.873 43.4731 14.5732 43.7729 14.5732 44.1426C14.5732 44.5119 14.8731 44.8117 15.2428 44.8117H29.4576C29.8274 44.8117 30.1267 44.5119 30.1267 44.1426C30.1267 43.7729 29.8274 43.4731 29.4576 43.4731Z" fill="#28B0DF"/>
<path d="M21.4264 46.043H15.2428C14.873 46.043 14.5732 46.3424 14.5732 46.7121C14.5732 47.0818 14.8731 47.3812 15.2428 47.3812H21.4264C21.7961 47.3812 22.0955 47.0818 22.0955 46.7121C22.0955 46.3424 21.7961 46.043 21.4264 46.043Z" fill="#28B0DF"/>
<path d="M29.4578 40.9032H20.8913C20.522 40.9032 20.2222 41.203 20.2222 41.5723C20.2222 41.942 20.522 42.2418 20.8913 42.2418H29.4578C29.8275 42.2418 30.1269 41.942 30.1269 41.5723C30.1269 41.203 29.8275 40.9032 29.4578 40.9032Z" fill="#28B0DF"/>
</svg>
