<svg width="57" height="53" viewBox="0 0 57 53" fill="none" xmlns="http://www.w3.org/2000/svg">
<path d="M7.37337 32.3965L19.5379 38.7364C19.6902 38.8169 19.8535 38.8547 20.0136 38.8547C20.3859 38.8547 20.7447 38.6506 20.9286 38.2984C21.1929 37.7952 20.9963 37.1709 20.4918 36.9093L10.0459 31.4655L20.5054 25.7938C21.0062 25.5233 21.1925 24.8965 20.9208 24.3969C20.6491 23.8949 20.021 23.7073 19.5239 23.9815L7.35941 30.5768C7.02364 30.7582 6.81593 31.1104 6.81963 31.4905C6.82209 31.8731 7.03595 32.2203 7.37337 32.3964V32.3965Z" fill="#28B0DF"/>
<path d="M24.2293 43.1761C24.3689 43.2414 24.5175 43.2742 24.662 43.2742C25.0507 43.2742 25.4234 43.0525 25.5983 42.6778L34.5062 23.5063C34.748 22.9903 34.5239 22.3775 34.0079 22.1373C33.4944 21.8972 32.8778 22.1197 32.639 22.6381L23.7282 41.8065C23.4881 42.3249 23.7122 42.9365 24.2294 43.1754L24.2293 43.1761Z" fill="#28B0DF"/>
<path d="M37.4389 33.6911H49.3176C49.8865 33.6911 50.3496 33.2281 50.3496 32.6592C50.3496 32.0902 49.8865 31.6272 49.3176 31.6272H37.4389C36.87 31.6272 36.407 32.0902 36.407 32.6592C36.407 33.2281 36.87 33.6911 37.4389 33.6911Z" fill="#28B0DF"/>
<path d="M55.1391 1.00064H2.03073C1.46179 1.00064 1 1.46243 1 2.03137V48.9723C1 50.6409 2.35789 52 4.02768 52H53.1428C54.8115 52 56.1705 50.6408 56.1705 48.9723V2.03032C56.1709 1.46179 55.7075 1 55.139 1L55.1391 1.00064ZM3.06055 3.06165H54.1071V13.3151H3.06055V3.06165ZM54.1071 48.9717C54.1071 49.5029 53.6745 49.9356 53.1433 49.9356L4.02712 49.936C3.49472 49.936 3.06043 49.5033 3.06043 48.9721L3.06084 15.3758H54.1074L54.1071 48.9717Z" fill="#1C208F" stroke="#1C208F" stroke-width="0.5"/>
<path d="M51.6861 7.15784H26.8737C26.3048 7.15784 25.843 7.61963 25.843 8.18856C25.843 8.7575 26.3048 9.21929 26.8737 9.21929H51.6861C52.2551 9.21929 52.7181 8.7575 52.7181 8.18856C52.7177 7.61963 52.2547 7.15784 51.6861 7.15784Z" fill="#28B0DF"/>
<path d="M9.78673 7.68604C10.0638 8.85836 9.33766 10.0332 8.16528 10.3099C6.99339 10.587 5.81855 9.86082 5.54186 8.68844C5.26479 7.51654 5.99093 6.3417 7.16289 6.0646C8.3352 5.78793 9.51004 6.51407 9.78673 7.68604Z" fill="#1C208F"/>
<path d="M15.7328 7.68607C16.0099 8.85797 15.2837 10.0328 14.1113 10.3099C12.9395 10.5866 11.7646 9.86044 11.4875 8.68847C11.2108 7.51615 11.937 6.34131 13.109 6.06463C14.2813 5.78755 15.4561 6.51369 15.7328 7.68607Z" fill="#1C208F"/>
<path d="M21.0987 6.64681C21.9505 7.49857 21.9505 8.87942 21.0987 9.73123C20.247 10.583 18.8661 10.583 18.0143 9.73123C17.1625 8.87948 17.1625 7.49862 18.0143 6.64681C18.8661 5.79506 20.2469 5.79506 21.0987 6.64681Z" fill="#1C208F"/>
</svg>
