<svg width="63" height="46" viewBox="0 0 63 46" fill="none" xmlns="http://www.w3.org/2000/svg">
<path fill-rule="evenodd" clip-rule="evenodd" d="M58.6548 5.4761C58.6548 6.08092 58.1685 6.57134 57.5686 6.57134C56.9688 6.57134 56.4824 6.08092 56.4824 5.4761C56.4824 4.87128 56.9688 4.38086 57.5686 4.38086C58.1685 4.38086 58.6548 4.87128 58.6548 5.4761Z" fill="#1C208F"/>
<path fill-rule="evenodd" clip-rule="evenodd" d="M54.3101 5.4761C54.3101 6.08092 53.8237 6.57134 53.2239 6.57134C52.6241 6.57134 52.1377 6.08092 52.1377 5.4761C52.1377 4.87128 52.6241 4.38086 53.2239 4.38086C53.8237 4.38086 54.3101 4.87128 54.3101 5.4761Z" fill="#1C208F"/>
<path fill-rule="evenodd" clip-rule="evenodd" d="M49.9654 5.4761C49.9654 6.08092 49.479 6.57134 48.8792 6.57134C48.2793 6.57134 47.793 6.08092 47.793 5.4761C47.793 4.87128 48.2793 4.38086 48.8792 4.38086C49.479 4.38086 49.9654 4.87128 49.9654 5.4761Z" fill="#1C208F"/>
<path fill-rule="evenodd" clip-rule="evenodd" d="M3.25862 46H59.7414C61.5414 46 63 44.5293 63 42.7143V3.28571C63 1.47075 61.5414 0 59.7414 0H3.25862C1.45862 0 0 1.47075 0 3.28571V42.7143C0 44.5293 1.45862 46 3.25862 46ZM60.8276 10.9524V42.7143C60.8276 43.3186 60.3407 43.8095 59.7414 43.8095H3.25862C2.65927 43.8095 2.17241 43.3186 2.17241 42.7143V10.9524H60.8276ZM60.8276 8.7619H2.17241V3.28571C2.17241 2.68138 2.65927 2.19048 3.25862 2.19048H59.7414C60.3407 2.19048 60.8276 2.68138 60.8276 3.28571V8.7619Z" fill="#1C208F"/>
<path fill-rule="evenodd" clip-rule="evenodd" d="M35.845 17.5237H56.4829C57.0823 17.5237 57.5691 17.0328 57.5691 16.4285C57.5691 15.8242 57.0823 15.3333 56.4829 15.3333H35.845C35.2456 15.3333 34.7588 15.8242 34.7588 16.4285C34.7588 17.0328 35.2456 17.5237 35.845 17.5237Z" fill="#1C208F"/>
<path fill-rule="evenodd" clip-rule="evenodd" d="M35.845 21.9048H53.2243C53.8237 21.9048 54.3105 21.4139 54.3105 20.8095C54.3105 20.2052 53.8237 19.7143 53.2243 19.7143H35.845C35.2456 19.7143 34.7588 20.2052 34.7588 20.8095C34.7588 21.4139 35.2456 21.9048 35.845 21.9048Z" fill="#1C208F"/>
<path fill-rule="evenodd" clip-rule="evenodd" d="M35.845 26.2856H57.5691C58.1685 26.2856 58.6553 25.7947 58.6553 25.1904C58.6553 24.5861 58.1685 24.0952 57.5691 24.0952H35.845C35.2456 24.0952 34.7588 24.5861 34.7588 25.1904C34.7588 25.7947 35.2456 26.2856 35.845 26.2856Z" fill="#1C208F"/>
<path fill-rule="evenodd" clip-rule="evenodd" d="M35.845 30.6667H46.164C46.7633 30.6667 47.2502 30.1758 47.2502 29.5715C47.2502 28.9672 46.7633 28.4763 46.164 28.4763H35.845C35.2456 28.4763 34.7588 28.9672 34.7588 29.5715C34.7588 30.1758 35.2456 30.6667 35.845 30.6667Z" fill="#1C208F"/>
<path fill-rule="evenodd" clip-rule="evenodd" d="M35.845 35.0476H56.4829C57.0823 35.0476 57.5691 34.5567 57.5691 33.9524C57.5691 33.348 57.0823 32.8571 56.4829 32.8571H35.845C35.2456 32.8571 34.7588 33.348 34.7588 33.9524C34.7588 34.5567 35.2456 35.0476 35.845 35.0476Z" fill="#1C208F"/>
<path fill-rule="evenodd" clip-rule="evenodd" d="M35.845 39.4285H48.8795C49.4788 39.4285 49.9657 38.9375 49.9657 38.3332C49.9657 37.7289 49.4788 37.238 48.8795 37.238H35.845C35.2456 37.238 34.7588 37.7289 34.7588 38.3332C34.7588 38.9375 35.2456 39.4285 35.845 39.4285Z" fill="#1C208F"/>
<path fill-rule="evenodd" clip-rule="evenodd" d="M18.4654 13.1428C10.6719 13.1428 4.34473 19.5226 4.34473 27.3809C4.34473 35.2392 10.6719 41.619 18.4654 41.619C26.2589 41.619 32.5861 35.2392 32.5861 27.3809C32.5861 19.5226 26.2589 13.1428 18.4654 13.1428ZM30.3386 26.0253C30.3885 26.4698 30.4137 26.9225 30.4137 27.3812C30.4137 34.0303 25.0598 39.4288 18.4655 39.4288C16.0094 39.4288 13.7264 38.6797 11.8266 37.3973L19.0663 28.3748L30.3391 26.0253H30.3386ZM7.89569 21.7603L16.8622 27.6374L10.1374 36.0179C7.90438 33.8284 6.51602 30.7661 6.51602 27.3807C6.51602 25.351 7.01451 23.4388 7.89557 21.7598L7.89569 21.7603ZM29.8991 23.8794L18.6822 26.2166L9.08233 19.9243C11.2698 17.1295 14.6612 15.333 18.4649 15.333C23.8514 15.333 28.4115 18.9351 29.8991 23.8793V23.8794Z" fill="#28B0DF"/>
</svg>
