<svg width="32" height="32" viewBox="0 0 32 32" fill="none" xmlns="http://www.w3.org/2000/svg">
<path d="M2 9H30" stroke="#2C71F6" stroke-width="2" stroke-miterlimit="10"/>
<path d="M10 9V30" stroke="#2C71F6" stroke-width="2" stroke-miterlimit="10"/>
<path d="M27 30H5C4.20435 30 3.44129 29.6839 2.87868 29.1213C2.31607 28.5587 2 27.7956 2 27V5C2 4.20435 2.31607 3.44129 2.87868 2.87868C3.44129 2.31607 4.20435 2 5 2H27C27.7956 2 28.5587 2.31607 29.1213 2.87868C29.6839 3.44129 30 4.20435 30 5V27C30 27.7956 29.6839 28.5587 29.1213 29.1213C28.5587 29.6839 27.7956 30 27 30Z" stroke="#2C71F6" stroke-width="2" stroke-miterlimit="10" stroke-linecap="square"/>
</svg>
