<svg width="32" height="32" viewBox="0 0 32 32" fill="none" xmlns="http://www.w3.org/2000/svg">
<path d="M25 28.9999H31V23.5619C31.0002 23.1158 30.8511 22.6824 30.5766 22.3307C30.3021 21.9789 29.9178 21.7291 29.485 21.6209L23.652 20.1629C23.4592 20.1146 23.2852 20.01 23.1521 19.8623C23.0191 19.7147 22.933 19.5307 22.905 19.3339L22.493 16.4529C23.5384 15.9754 24.4247 15.2076 25.0464 14.2409C25.6682 13.2742 25.9991 12.1493 26 10.9999V8.25193C26.0248 6.66084 25.4334 5.12179 24.3497 3.9566C23.266 2.79141 21.7737 2.09032 20.185 1.99993C19.0695 1.96399 17.9661 2.24111 17 2.79993" stroke="#2C71F6" stroke-width="2" stroke-miterlimit="10" stroke-linecap="square"/>
<path d="M19.549 23.586L14.624 22.178C14.4382 22.1251 14.2717 22.0195 14.1446 21.874C14.0176 21.7285 13.9354 21.5492 13.908 21.358L13.493 18.453C13.493 18.453 17.219 18.734 19 17C17.5584 15.0607 16.8499 12.6737 17 10.262C17.0221 8.68015 16.4373 7.14994 15.3657 5.98611C14.2941 4.82228 12.8173 4.1133 11.239 4.00501C10.4316 3.97282 9.62604 4.10405 8.8706 4.39082C8.11517 4.67759 7.42545 5.11399 6.8428 5.67385C6.26016 6.2337 5.7966 6.90548 5.47994 7.64888C5.16328 8.39227 5.00003 9.19197 5 10C5.19375 12.4976 4.484 14.9817 3 17C4.781 18.734 8.507 18.453 8.507 18.453L8.092 21.358C8.06461 21.5492 7.98242 21.7285 7.85536 21.874C7.72829 22.0195 7.5618 22.1251 7.376 22.178L2.451 23.586C2.03303 23.7053 1.6653 23.9576 1.40349 24.3045C1.14168 24.6515 1.00004 25.0743 1 25.509V29H21V25.509C21 25.0743 20.8583 24.6515 20.5965 24.3045C20.3347 23.9576 19.967 23.7053 19.549 23.586Z" stroke="#2C71F6" stroke-width="2" stroke-miterlimit="10" stroke-linecap="square"/>
</svg>
