<svg width="32" height="32" viewBox="0 0 32 32" fill="none" xmlns="http://www.w3.org/2000/svg">
<g clip-path="url(#clip0_800_2863)">
<path d="M11.999 24.959C5.84 24.45 1 19.29 1 13C1 6.373 6.373 1 13 1C19.29 1 24.45 5.84 24.959 11.999" stroke="#2C71F6" stroke-width="2" stroke-miterlimit="10"/>
<path d="M11.999 19.929C8.607 19.443 6 16.526 6 13C6 9.134 9.134 6 13 6C16.527 6 19.444 8.608 19.929 12.001" stroke="#2C71F6" stroke-width="2" stroke-miterlimit="10"/>
<path d="M14 14L16 29L20 25L26 31L31 26L25 20L29 16L14 14Z" stroke="#2C71F6" stroke-width="2" stroke-miterlimit="10" stroke-linecap="square"/>
</g>
<defs>
<clipPath id="clip0_800_2863">
<rect width="32" height="32" fill="white"/>
</clipPath>
</defs>
</svg>
