<svg width="32" height="30" viewBox="0 0 32 30" fill="none" xmlns="http://www.w3.org/2000/svg">
<path d="M19 1H13V7H19V1Z" stroke="#2C71F6" stroke-width="2" stroke-miterlimit="10" stroke-linecap="square"/>
<path d="M16 11V19" stroke="#2C71F6" stroke-width="2" stroke-miterlimit="10" stroke-linecap="square"/>
<path d="M4 19V15H28V19" stroke="#2C71F6" stroke-width="2" stroke-miterlimit="10" stroke-linecap="square"/>
<path d="M4 29C5.65685 29 7 27.6569 7 26C7 24.3431 5.65685 23 4 23C2.34315 23 1 24.3431 1 26C1 27.6569 2.34315 29 4 29Z" stroke="#2C71F6" stroke-width="2" stroke-miterlimit="10" stroke-linecap="square"/>
<path d="M16 29C17.6569 29 19 27.6569 19 26C19 24.3431 17.6569 23 16 23C14.3431 23 13 24.3431 13 26C13 27.6569 14.3431 29 16 29Z" stroke="#2C71F6" stroke-width="2" stroke-miterlimit="10" stroke-linecap="square"/>
<path d="M28 29C29.6569 29 31 27.6569 31 26C31 24.3431 29.6569 23 28 23C26.3431 23 25 24.3431 25 26C25 27.6569 26.3431 29 28 29Z" stroke="#2C71F6" stroke-width="2" stroke-miterlimit="10" stroke-linecap="square"/>
</svg>
