<svg width="70" height="70" viewBox="0 0 70 70" fill="none" xmlns="http://www.w3.org/2000/svg">
<path opacity="0.4" d="M25.2881 40.8335H11.6673C8.45898 40.8335 5.83398 43.4585 5.83398 46.6668V64.1668H25.2881V40.8335Z" fill="#1BC3F9"/>
<path d="M38.8787 29.1665H31.0911C27.8828 29.1665 25.2578 31.7915 25.2578 34.9998V64.1665H44.712V34.9998C44.712 31.7915 42.1161 29.1665 38.8787 29.1665Z" fill="#1BC3F9"/>
<path opacity="0.4" d="M58.3337 49.5835H44.7129V64.1668H64.1671V55.4168C64.1671 52.2085 61.5421 49.5835 58.3337 49.5835Z" fill="#1BC3F9"/>
<path d="M43.7794 14.1456C44.6835 13.2414 45.0336 12.1623 44.7419 11.2289C44.4502 10.2956 43.5461 9.62479 42.2627 9.42062L39.4627 8.95395C39.3461 8.92478 39.0836 8.74973 39.0252 8.63307L37.4794 5.54141C36.3127 3.17891 33.6586 3.17891 32.4919 5.54141L30.9461 8.63307C30.8877 8.74973 30.6252 8.92478 30.5086 8.95395L27.7086 9.42062C26.4252 9.62479 25.5502 10.2956 25.2294 11.2289C24.9377 12.1623 25.2877 13.2414 26.1919 14.1456L28.3502 16.3331C28.4377 16.4206 28.5544 16.7706 28.5252 16.8873L27.9127 19.5706C27.4461 21.5539 28.2044 22.4581 28.7002 22.8372C29.1961 23.1872 30.2752 23.6539 32.0544 22.6039L34.6794 21.0581C34.7961 20.9706 35.1752 20.9706 35.2919 21.0581L37.9169 22.6039C38.7336 23.0998 39.4044 23.2456 39.9294 23.2456C40.5419 23.2456 40.9794 23.0122 41.2419 22.8372C41.7377 22.4872 42.4961 21.5831 42.0294 19.5706L41.4169 16.8873C41.3877 16.7414 41.4752 16.4206 41.5919 16.3331L43.7794 14.1456Z" fill="#1BC3F9"/>
</svg>
