<svg width="234" height="232" viewBox="0 0 234 232" fill="none" xmlns="http://www.w3.org/2000/svg">
<path d="M100.048 10.2049C108.055 -1.99899 125.945 -1.99899 133.952 10.2049C139.807 19.1285 151.267 22.4934 161.017 18.1518C174.351 12.2142 189.402 21.8866 189.54 36.4821C189.641 47.1546 197.462 56.181 208.012 57.7998C222.439 60.0136 229.871 76.2876 222.096 88.6408C216.411 97.6737 218.111 109.496 226.111 116.561C237.051 126.223 234.505 143.932 221.285 150.121C211.619 154.646 206.658 165.51 209.568 175.779C213.547 189.822 201.831 203.343 187.365 201.403C176.786 199.984 166.739 206.441 163.635 216.653C159.391 230.618 142.225 235.658 131.104 226.205C122.972 219.292 111.028 219.292 102.896 226.205C91.7754 235.658 74.6094 230.618 70.3648 216.653C67.2611 206.441 57.2136 199.984 46.6354 201.403C32.1688 203.343 20.4529 189.822 24.4324 175.779C27.3423 165.51 22.3807 154.646 12.7146 150.121C-0.504526 143.932 -3.05064 126.223 7.88946 116.561C15.8891 109.496 17.5888 97.6737 11.9038 88.6408C4.12905 76.2876 11.5611 60.0136 25.9884 57.7998C36.5379 56.181 44.3592 47.1546 44.4602 36.4821C44.5983 21.8866 59.6489 12.2142 72.9829 18.1518C82.7329 22.4934 94.1926 19.1285 100.048 10.2049Z" stroke="#0976DE" stroke-width="1.5"/>
</svg>
