<svg width="32" height="32" viewBox="0 0 32 32" fill="none" xmlns="http://www.w3.org/2000/svg">
<path d="M15.5378 1.12081C15.7079 0.708316 16.2921 0.708316 16.4622 1.12081L20.4543 10.8006C20.5246 10.9711 20.6831 11.089 20.8667 11.1074L30.898 12.1125C31.3264 12.1554 31.5038 12.6835 31.1884 12.9764L23.5997 20.0218C23.4709 20.1414 23.4143 20.3198 23.4507 20.4918L25.6457 30.8535C25.7369 31.2843 25.267 31.6142 24.8928 31.3819L16.2637 26.0253C16.1022 25.925 15.8978 25.925 15.7363 26.0253L7.10718 31.3819C6.73302 31.6142 6.26307 31.2843 6.35433 30.8535L8.54927 20.4918C8.5857 20.3198 8.52915 20.1414 8.40032 20.0218L0.81164 12.9764C0.496159 12.6835 0.673648 12.1554 1.10198 12.1125L11.1333 11.1074C11.3169 11.089 11.4754 10.9711 11.5457 10.8006L15.5378 1.12081Z" fill="#FBBC04"/>
</svg>
