<svg width="70" height="70" viewBox="0 0 70 70" fill="none" xmlns="http://www.w3.org/2000/svg">
<g id="timer-start">
<g id="vuesax/bulk/timer-start">
<g id="timer-start_2">
<path id="Vector" d="M35 40.1043C33.8042 40.1043 32.8125 39.1127 32.8125 37.9168V23.3335C32.8125 22.1377 33.8042 21.146 35 21.146C36.1958 21.146 37.1875 22.1377 37.1875 23.3335V37.9168C37.1875 39.1127 36.1958 40.1043 35 40.1043Z" fill="#1BC3F9"/>
<path id="Vector_2" d="M43.429 10.0627H26.5707C25.404 10.0627 24.4707 9.12933 24.4707 7.96266C24.4707 6.796 25.404 5.8335 26.5707 5.8335H43.429C44.5957 5.8335 45.529 6.76683 45.529 7.9335C45.529 9.10016 44.5957 10.0627 43.429 10.0627Z" fill="#1BC3F9"/>
<path id="Vector_3" opacity="0.4" d="M45.2085 56.8747V49.583C45.2085 45.8788 51.7127 43.7497 55.4168 43.7497L58.3335 45.208C58.8877 45.208 59.296 45.0913 59.7918 45.208C60.1127 43.5747 60.2879 40.6001 60.2879 38.8793C60.2879 24.9376 48.9421 13.5918 35.0004 13.5918C21.0587 13.5918 9.71289 24.9376 9.71289 38.8793C9.71289 52.821 21.0587 64.1668 35.0004 64.1668C38.5296 64.1668 43.6043 62.5622 46.6668 61.2497C45.9085 60.258 45.2085 58.4788 45.2085 56.8747Z" fill="#1BC3F9"/>
</g>
</g>
<path id="Vector_4" d="M52.5007 40.8335C46.0548 40.8335 40.834 46.0543 40.834 52.5002C40.834 54.6877 41.4465 56.7585 42.5257 58.5085C44.5382 61.8918 48.2423 64.1668 52.5007 64.1668C56.759 64.1668 60.4631 61.8918 62.4756 58.5085C63.5548 56.7585 64.1673 54.6877 64.1673 52.5002C64.1673 46.0543 58.9465 40.8335 52.5007 40.8335ZM58.5382 51.246L52.3257 56.9919C51.9173 57.371 51.3632 57.5751 50.8382 57.5751C50.284 57.5751 49.7298 57.371 49.2923 56.9335L46.4048 54.046C45.559 53.2002 45.559 51.8002 46.4048 50.9543C47.2507 50.1085 48.6507 50.1085 49.4965 50.9543L50.8965 52.3544L55.5632 48.0377C56.4382 47.221 57.8382 47.2794 58.6548 48.1544C59.4715 49.0294 59.4132 50.4002 58.5382 51.246Z" fill="#1BC3F9"/>
</g>
</svg>
