<svg width="71" height="70" viewBox="0 0 71 70" fill="none" xmlns="http://www.w3.org/2000/svg">
<g id="user-tick">
<g id="vuesax/bulk/user-tick">
<g id="user-tick_2">
<path id="Vector" d="M52.7741 37.9165C50.0324 37.9165 47.4949 38.879 45.4824 40.4832C42.7991 42.6124 41.1074 45.9082 41.1074 49.5832C41.1074 51.7707 41.7199 53.8415 42.799 55.5915C44.8115 58.9748 48.5158 61.2498 52.7741 61.2498C55.7199 61.2498 58.4033 60.1707 60.4449 58.3332C61.3491 57.5748 62.1366 56.6415 62.7491 55.5915C63.8283 53.8415 64.4408 51.7707 64.4408 49.5832C64.4408 43.1373 59.2199 37.9165 52.7741 37.9165ZM58.8116 48.329L52.5991 54.0748C52.1908 54.4539 51.6366 54.6581 51.1116 54.6581C50.5574 54.6581 50.0032 54.4541 49.5657 54.0166L46.6783 51.1291C45.8324 50.2833 45.8324 48.8831 46.6783 48.0373C47.5241 47.1914 48.9241 47.1914 49.7699 48.0373L51.17 49.4374L55.8366 45.1206C56.7116 44.3039 58.1115 44.3624 58.9282 45.2374C59.7449 46.1124 59.6866 47.4832 58.8116 48.329Z" fill="#1BC3F9"/>
<path id="Vector_2" opacity="0.4" d="M61.7867 62.7085C61.7867 63.5252 61.145 64.1668 60.3284 64.1668H10.2201C9.40339 64.1668 8.76172 63.5252 8.76172 62.7085C8.76172 50.6335 20.6617 40.8335 35.2742 40.8335C38.2784 40.8335 41.1951 41.2418 43.8784 42.0293C42.1576 44.0709 41.1075 46.7252 41.1075 49.5835C41.1075 51.771 41.72 53.8418 42.7992 55.5918C43.3825 56.5835 44.1409 57.4876 45.0159 58.2459C47.0575 60.1126 49.77 61.2502 52.7742 61.2502C56.0409 61.2502 58.9867 59.9085 61.0867 57.7501C61.5534 59.3251 61.7867 60.9877 61.7867 62.7085Z" fill="#1BC3F9"/>
<path id="Vector_3" d="M35.2728 35.0002C43.3269 35.0002 49.8561 28.471 49.8561 20.4168C49.8561 12.3627 43.3269 5.8335 35.2728 5.8335C27.2186 5.8335 20.6895 12.3627 20.6895 20.4168C20.6895 28.471 27.2186 35.0002 35.2728 35.0002Z" fill="#1BC3F9"/>
</g>
</g>
</g>
</svg>
