<svg width="72" height="72" viewBox="0 0 72 72" fill="none" xmlns="http://www.w3.org/2000/svg">
<g id="Frame 5">
<rect width="71.7303" height="71.7303" transform="translate(0.191406)" fill="white"/>
<g id="vuesax/bulk/verify">
<g id="verify">
<path id="Vector" opacity="0.4" d="M32.3559 8.14512C34.3684 6.42428 37.6642 6.42428 39.7059 8.14512L44.3142 12.1118C45.1892 12.8701 46.8225 13.4826 47.9892 13.4826H52.9475C56.0392 13.4826 58.5767 16.0201 58.5767 19.1118V24.0701C58.5767 25.2076 59.1892 26.8701 59.9475 27.7451L63.9142 32.3535C65.635 34.366 65.635 37.6618 63.9142 39.7035L59.9475 44.3118C59.1892 45.1868 58.5767 46.8201 58.5767 47.9868V52.9451C58.5767 56.0368 56.0392 58.5743 52.9475 58.5743H47.9892C46.8517 58.5743 45.1892 59.1868 44.3142 59.9451L39.7059 63.9118C37.6934 65.6326 34.3975 65.6326 32.3559 63.9118L27.7475 59.9451C26.8725 59.1868 25.2392 58.5743 24.0725 58.5743H19.0267C15.935 58.5743 13.3975 56.0368 13.3975 52.9451V47.9576C13.3975 46.8201 12.785 45.1868 12.0559 44.3118L8.11836 39.6743C6.42669 37.6618 6.42669 34.3951 8.11836 32.3826L12.0559 27.7451C12.785 26.8701 13.3975 25.2368 13.3975 24.0993V19.0826C13.3975 15.9909 15.935 13.4535 19.0267 13.4535H24.0725C25.21 13.4535 26.8725 12.841 27.7475 12.0826L32.3559 8.14512Z" fill="#1BC3F9"/>
<path id="Vector_2" d="M32.4671 45.2452C31.8837 45.2452 31.3296 45.0119 30.9212 44.6036L23.8629 37.5452C23.0171 36.6994 23.0171 35.2994 23.8629 34.4536C24.7087 33.6077 26.1087 33.6077 26.9546 34.4536L32.4671 39.9661L45.0087 27.4244C45.8546 26.5786 47.2546 26.5786 48.1004 27.4244C48.9462 28.2702 48.9462 29.6702 48.1004 30.5161L34.0129 44.6036C33.6046 45.0119 33.0504 45.2452 32.4671 45.2452Z" fill="#1BC3F9"/>
</g>
</g>
</g>
</svg>
